<svg width="53" height="53" viewBox="0 0 53 53" fill="none" xmlns="http://www.w3.org/2000/svg">
<g id="&#240;&#159;&#166;&#134; icon &#34;night snow thunderstorm&#34;">
<path id="Vector" d="M0 25.9932C0 28.7448 0.810752 31.2017 2.45682 33.3637C4.1029 35.5257 6.21577 36.9752 8.79543 37.6877L7.17393 41.8643C7.05109 42.2082 7.17393 42.4048 7.51788 42.4048H12.7509L9.26223 52.748H9.97471L20.6865 38.8424C20.7847 38.7441 20.7847 38.6213 20.7356 38.4984C20.6865 38.3756 20.5636 38.3265 20.3916 38.3265H15.0112L21.1287 26.9022C21.3007 26.5583 21.2024 26.3617 20.7847 26.3617H13.488C13.2669 26.3617 13.0703 26.4846 12.9229 26.7303L10.2941 33.8059C8.52518 33.3637 7.07565 32.4301 5.92095 30.956C4.76624 29.5065 4.20117 27.8604 4.20117 25.9932C4.20117 23.9295 4.88908 22.136 6.2649 20.6373C7.64072 19.1387 9.38507 18.2542 11.4488 18.0085L12.7018 17.9348C12.9966 17.9348 13.1686 17.812 13.2423 17.5909L13.4388 16.1413C13.7091 13.488 14.8146 11.2523 16.8047 9.45877C18.7947 7.66529 21.1287 6.75627 23.8312 6.75627C26.5091 6.75627 28.8431 7.66529 30.8577 9.45877C32.8723 11.2523 34.027 13.488 34.2973 16.1413L34.4938 17.5909C34.4938 17.8611 34.6412 18.0085 34.936 18.0085H38.8915C41.0781 18.0085 42.9699 18.7947 44.5668 20.3671C46.1637 21.9394 46.9499 23.8066 46.9499 25.9932C46.9499 28.1306 46.2129 29.9733 44.7388 31.5456C43.2647 33.118 41.4958 33.9533 39.3829 34.0762C39.0635 34.0762 38.8915 34.2236 38.8915 34.5184V37.8105C38.8915 38.0808 39.0635 38.2282 39.3829 38.2282C41.5449 38.1791 43.5349 37.5894 45.3284 36.4593C47.1219 35.3537 48.5468 33.855 49.6033 32.0124C50.6597 30.1698 51.1757 28.1552 51.1757 25.9932C51.1757 24.1997 50.8317 22.5536 50.1192 21.0304C51.9864 18.6719 52.92 15.9694 52.92 12.9475C52.92 10.6135 52.3304 8.45148 51.1757 6.46145C50.0209 4.47142 48.4486 2.89905 46.4585 1.74435C44.4685 0.589638 42.3065 0 39.9725 0C38.2036 0 36.4838 0.368523 34.8132 1.10557C33.1426 1.84262 31.7176 2.87448 30.4892 4.1766C28.4992 3.12017 26.288 2.57967 23.8066 2.57967C20.3179 2.57967 17.2223 3.66067 14.5444 5.82267C11.8665 7.98468 10.1221 10.7363 9.38507 14.1022C6.65799 14.7409 4.42228 16.1659 2.65337 18.377C0.884457 20.6373 0 23.1679 0 25.9932ZM23.5609 40.9307C23.5609 41.5203 23.7575 42.0117 24.1506 42.3802C24.5437 42.7733 25.035 42.9699 25.5755 42.9699C26.1652 42.9699 26.6565 42.7733 27.0742 42.3802C27.4919 41.9871 27.6884 41.4958 27.6884 40.9307C27.6884 40.3411 27.4919 39.8497 27.0742 39.432C26.6565 39.0144 26.1652 38.7933 25.5755 38.7933C25.035 38.7933 24.5682 39.0144 24.1506 39.432C23.7329 39.8497 23.5609 40.3411 23.5609 40.9307ZM23.5609 31.9879C23.5609 32.5775 23.7575 33.0443 24.1506 33.4128C24.5437 33.8059 25.035 34.0024 25.5755 34.0024C26.1652 34.0024 26.6811 33.8059 27.0742 33.4374C27.4673 33.0689 27.6884 32.5775 27.6884 31.9879C27.6884 31.4228 27.4919 30.9314 27.0742 30.5138C26.6565 30.0961 26.1652 29.8996 25.5755 29.8996C25.0105 29.8996 24.5437 30.0961 24.1506 30.5138C23.7575 30.9314 23.5609 31.4228 23.5609 31.9879ZM23.5609 49.9472C23.5609 50.4877 23.7575 50.9545 24.1506 51.3476C24.5682 51.7653 25.035 51.9618 25.5755 51.9618C26.1652 51.9618 26.6565 51.7653 27.0742 51.3722C27.4919 50.9791 27.6884 50.5123 27.6884 49.9227C27.6884 49.333 27.4919 48.8417 27.0742 48.424C26.6565 48.0063 26.1652 47.7852 25.5755 47.7852C25.035 47.7852 24.5682 48.0063 24.1506 48.424C23.7575 48.8662 23.5609 49.3822 23.5609 49.9472ZM31.4965 36.1645C31.4965 36.7541 31.693 37.2455 32.1107 37.6386C32.5284 38.0316 32.9952 38.2528 33.5848 38.2528C34.1499 38.2528 34.6412 38.0562 35.0343 37.6386C35.4274 37.2209 35.624 36.7295 35.624 36.1645C35.624 35.624 35.4274 35.1326 35.0343 34.7395C34.6412 34.3464 34.1744 34.1499 33.5848 34.1499C33.0197 34.1499 32.5284 34.3464 32.1107 34.7395C31.693 35.1326 31.4965 35.5994 31.4965 36.1645ZM31.4965 45.1073C31.4965 45.6724 31.693 46.1392 32.0861 46.5323C32.4792 46.9253 32.9706 47.1219 33.5602 47.1219C34.1499 47.1219 34.6167 46.9253 35.0097 46.5323C35.4028 46.1392 35.5748 45.6724 35.5748 45.0827C35.5748 44.4931 35.3783 44.0263 35.0097 43.6332C34.6167 43.2401 34.1499 43.0681 33.5602 43.0681C32.9706 43.0681 32.4792 43.2647 32.0861 43.6332C31.693 44.0263 31.4965 44.5177 31.4965 45.1073ZM33.9779 6.68256C35.624 5.1102 37.614 4.29944 39.9971 4.29944C42.4048 4.29944 44.4685 5.13476 46.1637 6.82997C47.8589 8.50061 48.7188 10.5643 48.7188 12.972C48.7188 14.5935 48.3257 16.0676 47.5641 17.4189C45.2056 15.0603 42.3311 13.8811 38.9161 13.8811H38.1545C37.4174 10.9574 36.017 8.54975 33.9779 6.68256Z" fill="black"/>
</g>
</svg>
